<?xml version="1.0" standalone="no"?>
<!DOCTYPE svg PUBLIC "-//W3C//DTD SVG 20010904//EN"
 "http://www.w3.org/TR/2001/REC-SVG-20010904/DTD/svg10.dtd">
<svg version="1.0" xmlns="http://www.w3.org/2000/svg"
 width="600.000000pt" height="600.000000pt" viewBox="0 0 600.000000 600.000000"
 preserveAspectRatio="xMidYMid meet">
<metadata>
Created by potrace 1.14, written by Peter Selinger 2001-2017
</metadata>
<g transform="translate(0.000000,600.000000) scale(0.100000,-0.100000)"
fill="#000000" stroke="none">
<path d="M2770 5932 c0 -4 -95 -7 -211 -7 -130 0 -213 -4 -217 -10 -4 -5 -56
-11 -117 -12 -142 -3 -286 -12 -305 -20 -8 -3 -40 -7 -70 -8 -30 0 -61 -5 -68
-9 -12 -7 -48 -11 -198 -20 -28 -2 -57 -7 -64 -11 -8 -5 -34 -9 -59 -10 -25
-1 -46 -5 -48 -11 -2 -5 -25 -7 -53 -6 -28 2 -50 0 -50 -6 0 -5 -10 -9 -22 -8
-13 1 -41 -2 -63 -7 -22 -5 -55 -10 -72 -10 -18 0 -33 -3 -33 -7 0 -4 -13 -7
-29 -8 -17 0 -38 -5 -48 -10 -10 -5 -29 -8 -43 -7 -14 1 -30 -1 -36 -6 -6 -5
-30 -10 -53 -11 -22 -1 -41 -5 -41 -10 0 -4 -15 -8 -34 -8 -19 0 -37 -4 -41
-9 -3 -6 -19 -8 -35 -6 -17 2 -30 -1 -30 -6 0 -5 -7 -9 -15 -9 -8 0 -15 -5
-15 -12 0 -6 -3 -8 -7 -5 -4 4 -14 -9 -24 -30 -18 -39 -18 -107 -1 -154 5 -13
8 -34 7 -46 -1 -12 2 -20 7 -17 8 5 12 -17 9 -43 -1 -6 3 -14 9 -18 5 -3 10
-19 10 -35 0 -16 4 -31 9 -34 5 -3 11 -18 14 -33 3 -16 8 -44 12 -63 4 -19 10
-37 15 -40 4 -3 6 -13 4 -23 -1 -10 3 -23 10 -29 7 -7 10 -22 8 -35 -2 -13 1
-30 8 -38 7 -8 10 -22 6 -30 -3 -8 -1 -15 4 -15 6 0 9 -3 9 -7 -1 -5 0 -10 1
-13 1 -3 3 -14 5 -25 2 -11 8 -21 14 -23 5 -2 7 -10 4 -18 -13 -34 63 -83 123
-79 60 4 138 17 149 24 6 4 24 7 40 7 17 -1 33 3 37 8 6 9 40 15 115 19 22 1
39 5 36 10 -2 4 2 7 9 8 7 1 31 2 53 4 22 1 48 5 58 9 37 13 47 15 47 7 0 -4
7 -8 15 -8 8 0 12 4 9 9 -6 10 -3 10 65 13 29 2 56 7 60 12 3 5 32 8 64 7 31
0 57 2 57 7 0 4 13 7 29 7 15 -1 32 2 38 5 5 3 15 2 22 -2 7 -5 25 -3 40 4 14
7 51 12 81 11 30 -2 60 2 67 7 13 9 94 15 338 23 76 3 142 8 145 12 9 14 762
8 787 -6 14 -8 24 -9 28 -2 4 6 10 8 15 5 5 -3 59 -6 119 -6 61 0 113 -4 116
-8 2 -5 46 -8 96 -7 53 0 93 -3 95 -9 2 -5 37 -10 77 -9 39 0 78 -4 85 -9 6
-5 12 -6 12 -3 0 4 9 2 20 -4 14 -8 26 -8 40 0 13 7 20 7 20 1 0 -6 7 -8 15
-5 8 4 15 2 15 -3 0 -6 19 -9 43 -9 23 1 60 -4 82 -10 22 -6 55 -9 73 -7 17 1
32 -2 32 -7 0 -6 17 -10 38 -10 21 0 42 -3 46 -7 4 -5 24 -9 44 -9 74 -3 83
-4 78 -12 -3 -4 10 -7 27 -6 18 1 37 -2 43 -7 6 -5 25 -7 42 -5 17 2 33 -1 34
-6 2 -5 22 -10 46 -11 23 -1 42 -5 42 -8 0 -7 54 -17 115 -22 17 -1 33 -6 37
-12 4 -5 17 -10 30 -12 13 -1 42 -5 65 -9 42 -6 42 -7 39 -45 -2 -22 -6 -42
-9 -46 -4 -3 -7 -39 -7 -80 0 -40 -4 -73 -9 -73 -6 0 -10 -30 -10 -66 0 -36
-4 -71 -9 -77 -5 -7 -8 -41 -8 -77 1 -36 -4 -70 -10 -77 -6 -6 -10 -40 -8 -77
1 -42 -2 -69 -9 -73 -7 -5 -13 -36 -14 -73 -2 -89 -8 -159 -16 -166 -3 -3 -2
-17 3 -30 7 -18 6 -24 -3 -24 -10 0 -13 -19 -12 -70 1 -41 -4 -75 -10 -80 -6
-5 -10 -39 -9 -85 1 -41 -2 -75 -7 -75 -5 0 -9 -29 -9 -65 0 -36 -4 -65 -8
-65 -5 0 -9 -34 -10 -75 -1 -42 -5 -81 -9 -88 -4 -7 -8 -39 -8 -72 -1 -33 -5
-71 -9 -84 -5 -13 -10 -51 -12 -85 -6 -91 -8 -106 -14 -106 -3 0 -4 -18 -2
-40 2 -22 0 -46 -6 -53 -6 -6 -10 -45 -10 -86 0 -40 -4 -76 -8 -80 -5 -3 -10
-37 -10 -74 0 -38 -5 -72 -10 -75 -5 -4 -9 -32 -8 -62 0 -30 -2 -59 -6 -65 -8
-11 -10 -29 -10 -99 0 -26 -5 -55 -11 -62 -6 -8 -8 -15 -3 -15 5 -1 256 -2
559 -3 l549 -2 73 73 73 73 -1 90 c0 50 -5 93 -11 96 -5 3 -7 12 -4 20 3 8 -1
17 -9 20 -8 4 -13 10 -10 14 3 5 -1 14 -8 22 -8 7 -19 24 -26 36 -7 12 -16 20
-20 18 -5 -3 -16 12 -26 34 -16 35 -30 45 -57 41 -5 0 -8 4 -8 9 0 6 -6 10
-13 10 -7 0 -20 9 -30 20 -10 12 -23 18 -29 14 -6 -4 -8 -3 -4 4 3 6 -4 19
-16 29 -13 10 -29 30 -37 46 -8 15 -18 27 -23 27 -5 0 -6 5 -3 10 4 6 1 18 -6
26 -6 8 -9 17 -6 20 3 3 1 18 -5 33 -14 31 -17 144 -5 152 5 3 9 34 9 68 1 33
5 61 9 61 4 0 7 37 6 82 -1 45 3 86 8 92 11 12 12 86 2 103 -4 6 -1 14 5 17
10 5 10 7 1 12 -7 3 -9 12 -6 21 4 9 2 14 -3 10 -5 -3 -9 19 -8 54 1 33 -3 59
-8 59 -6 0 -7 7 -4 15 3 9 -1 18 -9 21 -8 4 -13 10 -10 15 3 4 -4 13 -15 19
-11 6 -20 18 -20 27 0 9 -3 14 -6 10 -3 -3 -16 4 -29 16 -12 12 -50 48 -84 80
-33 31 -61 62 -61 67 0 6 -5 10 -12 10 -6 0 -8 3 -5 7 4 3 -2 17 -14 29 -12
13 -19 30 -16 38 3 8 2 16 -4 18 -5 2 -12 16 -15 32 -3 16 -7 33 -10 37 -2 4
1 11 7 15 8 5 7 9 -2 15 -9 5 -13 30 -13 78 0 39 -3 71 -8 71 -4 0 -7 3 -7 8
1 4 0 12 -1 17 -1 6 -2 36 -1 68 0 31 -4 57 -9 57 -6 0 -9 27 -8 63 1 45 -2
61 -11 59 -9 -2 -11 8 -8 33 3 21 0 38 -7 43 -6 4 -12 14 -13 22 -1 27 -15 60
-24 60 -5 0 -9 6 -9 13 0 8 -9 22 -20 32 -11 10 -17 23 -13 29 3 6 3 8 -1 5
-4 -4 -28 15 -54 42 -25 26 -49 46 -53 44 -3 -3 -19 9 -34 25 -23 23 -25 31
-13 35 10 4 14 19 14 45 -1 21 2 36 6 34 8 -5 9 -2 12 39 1 12 7 21 14 19 13
-2 12 19 -1 29 -5 3 -2 13 7 21 8 9 12 18 9 22 -4 3 -2 6 4 6 5 0 7 14 5 31
-4 24 -2 30 8 24 10 -6 12 -1 8 19 -3 15 0 33 7 39 6 7 11 21 9 32 -2 11 1 24
6 30 5 6 10 22 12 35 2 14 9 35 16 47 9 16 9 24 1 29 -9 5 -8 10 2 18 8 6 14
20 14 31 0 11 4 26 9 33 15 21 14 101 -2 107 -7 3 -11 8 -9 13 3 4 -1 16 -9
27 -8 10 -14 15 -14 11 0 -4 -12 1 -27 12 -16 10 -35 20 -43 20 -34 3 -86 15
-95 22 -5 4 -27 7 -48 6 -20 0 -38 3 -40 8 -2 5 -24 10 -50 11 -26 2 -54 8
-62 15 -8 7 -15 8 -15 3 0 -6 -11 -8 -25 -5 -14 2 -25 8 -25 12 0 4 -18 7 -40
6 -22 -1 -41 1 -42 6 -2 4 -25 10 -53 13 -27 3 -72 8 -100 11 -27 4 -54 9 -60
13 -5 4 -31 7 -57 7 -33 -1 -48 3 -48 12 0 9 -5 10 -19 2 -11 -5 -22 -6 -25
-1 -3 4 -18 7 -33 5 -15 -1 -32 1 -38 5 -5 5 -32 9 -60 9 -27 0 -61 4 -75 9
-14 5 -47 9 -75 8 -27 -1 -57 2 -67 6 -9 5 -55 9 -102 10 -47 1 -88 4 -90 8
-3 4 -60 8 -127 8 -67 1 -124 5 -128 10 -3 5 -96 9 -206 11 -110 1 -266 4
-347 6 -82 2 -148 1 -148 -2z"/>
<path d="M2650 4759 c0 -11 -30 -15 -142 -16 -233 -4 -371 -12 -377 -21 -3 -4
-36 -8 -73 -7 -38 0 -68 -4 -68 -9 0 -5 -3 -7 -6 -4 -3 4 -19 2 -35 -2 -19 -6
-29 -5 -29 2 0 7 -4 7 -12 1 -7 -6 -22 -9 -33 -7 -10 1 -24 -1 -30 -5 -5 -5
-30 -8 -55 -7 -25 1 -50 -2 -57 -7 -7 -5 -39 -10 -72 -11 -33 -1 -63 -5 -67
-9 -4 -4 -24 -7 -44 -7 -20 0 -42 -6 -49 -12 -11 -11 -12 -10 -6 2 7 12 6 13
-6 4 -8 -6 -30 -11 -49 -10 -19 1 -41 -4 -48 -11 -6 -6 -23 -10 -36 -7 -13 2
-34 -2 -47 -9 -21 -10 -24 -19 -22 -59 1 -26 6 -55 11 -65 5 -10 8 -44 8 -76
-1 -31 2 -57 5 -57 6 0 7 -2 12 -80 2 -30 0 -61 -6 -67 -6 -8 -6 -13 0 -13 12
0 34 -46 25 -54 -8 -8 -2 -99 7 -106 3 -3 6 -18 6 -35 0 -16 4 -36 9 -42 5 -8
4 -13 -2 -13 -12 0 -10 -16 4 -45 5 -11 10 -49 9 -85 0 -36 4 -68 9 -72 5 -3
9 -40 9 -82 0 -42 3 -79 8 -82 5 -3 9 -31 9 -63 0 -32 3 -61 8 -65 4 -4 8 -34
8 -67 1 -32 5 -71 10 -86 4 -16 8 -55 8 -88 1 -33 5 -66 10 -74 5 -7 9 -41 10
-75 1 -33 5 -67 9 -73 5 -7 6 -17 2 -22 -3 -5 -1 -12 5 -16 6 -4 8 -10 6 -14
-9 -14 -15 -61 -7 -61 8 0 13 -28 15 -92 0 -27 5 -48 10 -48 5 0 3 -6 -3 -14
-8 -10 -8 -20 2 -39 7 -14 13 -52 12 -84 -1 -32 3 -61 9 -65 5 -3 9 -38 9 -77
-1 -39 3 -71 8 -71 5 0 9 -34 9 -75 0 -41 4 -75 9 -75 5 0 9 -24 7 -52 -1 -31
4 -62 12 -74 7 -12 11 -26 10 -31 -4 -12 74 -89 86 -85 5 2 12 -1 15 -5 17
-23 58 -29 207 -28 l161 0 0 -32 c0 -22 -5 -33 -14 -33 -8 0 -11 -5 -8 -10 3
-6 -2 -22 -12 -38 -11 -15 -19 -34 -18 -42 0 -8 -3 -17 -7 -20 -4 -3 -9 -15
-11 -25 -4 -20 -11 -42 -27 -80 -16 -38 -23 -60 -27 -80 -2 -10 -7 -22 -11
-25 -4 -3 -7 -12 -7 -20 0 -8 -3 -18 -8 -21 -4 -3 -9 -16 -10 -27 -1 -12 -4
-22 -8 -22 -9 0 -21 -39 -22 -72 -1 -15 -5 -24 -9 -22 -4 3 -8 -4 -8 -15 0
-12 -4 -21 -10 -21 -5 0 -10 -11 -10 -24 0 -14 -4 -28 -10 -31 -5 -3 -10 -15
-10 -26 0 -10 -5 -19 -11 -19 -6 0 -9 -6 -6 -12 2 -7 -2 -25 -10 -40 -7 -16
-11 -28 -9 -28 3 0 -1 -12 -9 -27 -8 -15 -12 -30 -9 -35 3 -4 0 -8 -7 -8 -6 0
-9 -8 -6 -19 3 -12 -1 -22 -10 -25 -7 -3 -13 -11 -11 -18 1 -7 -3 -23 -10 -35
-7 -13 -9 -23 -5 -23 4 0 2 -4 -4 -8 -7 -5 -14 -20 -15 -35 -1 -15 -6 -27 -11
-27 -5 0 -7 -11 -5 -25 4 -17 1 -25 -9 -25 -9 0 -13 -6 -9 -15 3 -8 2 -15 -2
-15 -6 0 -33 -72 -37 -100 -4 -21 -18 -50 -25 -50 -4 0 -7 -8 -6 -17 2 -9 -4
-29 -11 -44 -8 -15 -16 -37 -18 -48 -2 -10 -12 -34 -21 -53 -10 -18 -18 -40
-18 -48 0 -8 -4 -18 -8 -21 -4 -3 -9 -17 -10 -32 -1 -15 -6 -27 -10 -27 -4 0
-8 -9 -8 -20 0 -11 -5 -20 -11 -20 -6 0 -9 -6 -6 -13 3 -7 -1 -21 -9 -31 -7
-11 -11 -22 -9 -27 3 -4 1 -10 -5 -14 -5 -3 -10 -17 -10 -31 0 -13 -4 -24 -10
-24 -5 0 -10 -10 -10 -23 0 -13 -5 -28 -12 -35 -7 -7 -9 -12 -5 -12 4 0 2 -10
-5 -22 -29 -55 -29 -55 158 -55 l172 0 13 26 c7 14 11 32 10 39 -1 6 3 12 10
12 6 0 9 8 6 20 -3 11 -1 20 5 20 5 0 6 5 3 10 -4 6 -1 17 5 25 6 8 9 23 6 33
-4 13 -1 22 8 25 9 4 13 15 11 27 -2 11 0 20 6 21 16 2 99 1 102 -1 8 -6 37
-7 37 -2 0 9 113 8 128 -2 7 -4 12 -3 12 2 0 5 10 8 23 6 12 -1 22 -3 22 -4 0
-1 12 -3 28 -4 15 -1 27 1 27 4 0 3 29 5 65 5 36 0 65 -4 65 -8 0 -5 6 -5 12
-1 15 10 48 13 48 5 0 -3 11 -6 25 -6 14 0 25 2 25 5 0 8 114 5 128 -4 7 -4
12 -3 12 2 0 5 10 8 23 6 12 -1 22 -3 22 -4 0 -1 12 -3 28 -4 15 -1 27 1 27 4
0 3 29 5 65 5 36 0 65 -4 65 -8 0 -5 6 -5 12 -1 15 10 48 13 48 5 0 -3 11 -6
25 -6 14 0 25 2 25 5 0 8 114 5 128 -4 7 -4 12 -3 12 2 0 5 10 8 23 6 12 -1
22 -3 22 -4 0 -1 12 -3 28 -4 15 -1 27 1 27 4 0 3 34 5 75 5 41 0 75 -4 75 -8
0 -5 5 -5 11 -1 16 9 149 11 149 1 0 -5 5 -5 11 -1 16 9 149 11 149 1 0 -5 5
-5 11 -1 17 10 149 10 149 -1 0 -5 5 -4 11 2 6 6 23 8 45 3 19 -4 34 -5 34 -1
0 8 113 6 128 -3 7 -4 12 -3 12 2 0 5 10 8 23 6 12 -1 22 -3 22 -4 0 -1 12 -3
28 -4 15 -1 27 1 27 4 0 8 85 4 99 -5 7 -4 10 -13 7 -21 -3 -7 1 -19 8 -26 7
-8 12 -22 10 -33 -2 -11 2 -25 8 -32 6 -7 7 -13 3 -13 -4 0 -3 -6 3 -12 6 -7
11 -16 11 -20 1 -5 1 -9 2 -10 0 -2 3 -16 5 -33 8 -50 20 -53 202 -51 160 1
167 2 167 21 0 11 -5 26 -12 33 -7 7 -10 19 -7 27 4 8 2 15 -3 15 -6 0 -16 19
-23 43 -21 68 -34 96 -42 91 -4 -3 -5 2 -2 11 4 8 2 21 -4 28 -5 6 -8 20 -7
30 2 9 -1 15 -6 11 -5 -3 -10 0 -10 5 -1 6 -3 16 -4 21 -1 6 -3 17 -4 26 0 8
-5 13 -10 10 -5 -4 -8 2 -6 11 1 10 -1 23 -6 29 -5 6 -10 20 -12 32 -2 12 -6
25 -10 28 -4 4 -7 18 -7 31 0 12 -4 23 -10 23 -5 0 -10 9 -10 19 0 11 -4 22
-10 26 -5 3 -7 12 -4 19 3 7 -2 19 -10 26 -9 7 -13 16 -10 21 3 5 0 9 -5 9 -6
0 -11 14 -11 30 0 17 -5 30 -11 30 -5 0 -8 4 -4 9 3 5 1 12 -5 16 -5 3 -10 17
-10 30 0 13 -4 27 -10 30 -5 3 -10 17 -10 31 0 13 -4 24 -10 24 -5 0 -10 11
-10 25 0 14 -5 25 -11 25 -7 0 -9 10 -7 25 3 13 1 22 -3 19 -8 -5 -13 10 -10
29 1 4 -5 17 -13 29 -8 11 -12 27 -9 34 3 8 1 14 -5 14 -5 0 -13 7 -16 16 -4
10 -2 13 7 8 6 -4 5 1 -4 12 -17 20 -35 63 -31 77 1 4 -3 7 -8 7 -6 0 -10 14
-10 30 0 17 -4 30 -10 30 -5 0 -10 11 -10 25 0 14 -5 25 -11 25 -6 0 -9 6 -6
13 3 7 -1 21 -9 31 -7 11 -11 23 -7 29 3 5 0 12 -6 16 -6 4 -13 17 -16 29 -2
11 -9 31 -16 44 -8 13 -14 30 -14 38 0 8 -6 25 -13 38 -7 12 -9 22 -5 22 4 0
2 5 -5 12 -7 7 -12 20 -12 30 0 10 -4 18 -10 18 -5 0 -10 11 -10 25 0 14 -4
25 -8 25 -4 0 -9 12 -10 27 -1 15 -6 31 -11 36 -5 5 -7 16 -4 23 3 8 -1 14
-11 14 -9 0 -13 6 -10 14 3 8 0 25 -7 38 -7 13 -12 29 -11 36 2 6 -2 12 -7 12
-6 0 -9 10 -7 22 3 22 6 22 162 23 135 1 165 4 198 20 59 29 102 74 104 109 0
5 6 12 13 16 7 5 12 29 12 59 -1 28 2 53 7 56 4 2 8 39 9 82 1 42 6 82 12 89
5 6 8 36 6 68 -1 33 2 56 8 56 7 0 11 33 10 85 0 53 4 86 11 89 7 3 10 28 8
70 -3 42 0 66 7 66 5 0 8 4 4 9 -3 5 -2 12 3 15 9 6 8 47 -2 64 -4 7 -4 16 -1
22 11 19 18 55 20 110 1 30 6 64 11 75 6 11 10 49 9 85 -1 36 3 68 9 72 5 3 9
40 9 82 -1 42 3 76 8 76 5 0 9 26 9 58 0 32 3 62 8 66 4 4 8 46 8 92 1 46 6
90 11 97 5 6 9 37 8 67 -1 32 5 64 12 77 11 17 12 22 1 26 -8 4 -9 8 -3 14 10
8 12 16 21 148 3 44 8 87 11 95 3 8 7 48 8 88 1 41 6 77 11 80 5 4 9 34 9 66
0 33 4 64 10 70 5 6 9 20 9 31 -1 11 -2 30 -3 41 -1 17 -10 24 -38 30 -21 4
-44 6 -50 5 -7 -1 -13 2 -13 7 0 5 -12 8 -27 8 -16 -1 -34 3 -40 8 -7 4 -13 5
-13 1 0 -4 -6 -2 -14 4 -7 6 -30 9 -50 7 -21 -3 -34 -1 -31 5 6 9 -6 12 -67
12 -21 0 -38 4 -38 9 0 6 -18 8 -40 6 -22 -2 -41 1 -43 6 -2 6 -28 10 -58 11
-30 1 -63 6 -74 11 -11 5 -44 9 -72 8 -33 -1 -50 2 -47 8 4 7 -9 9 -35 6 -22
-2 -41 1 -41 5 0 5 -6 5 -13 -1 -9 -8 -20 -8 -38 1 -13 7 -49 12 -79 12 -30
-1 -63 3 -74 8 -10 5 -70 9 -132 9 -63 0 -114 3 -114 7 0 5 -72 8 -161 8 -89
0 -164 4 -167 9 -9 12 -462 12 -462 0 0 -5 -7 -3 -15 4 -12 10 -15 10 -15 -1z
m20 -339 c3 -2 10 -1 15 0 25 5 95 3 101 -2 3 -4 17 -3 30 2 15 6 24 6 24 0 0
-5 8 -6 17 -3 15 6 120 8 133 3 3 -1 9 -2 15 -1 12 3 287 3 300 1 6 -2 15 -1
20 0 23 4 92 3 100 -2 6 -3 19 -2 30 2 11 4 33 1 50 -6 16 -7 33 -13 37 -14
39 -9 48 -14 48 -22 0 -5 5 -6 10 -3 6 3 10 -1 10 -9 0 -9 5 -16 10 -16 6 0
10 -7 10 -15 0 -8 4 -15 8 -15 4 0 8 -10 9 -22 1 -11 6 -24 10 -27 11 -8 9
-1670 -2 -1701 -5 -14 -8 -32 -7 -40 1 -8 -14 -26 -32 -40 -19 -14 -32 -28
-29 -32 4 -8 -1 -10 -29 -12 -7 -1 -16 -5 -19 -10 -4 -4 -248 -8 -544 -8 -436
0 -539 3 -546 14 -5 7 -9 9 -9 4 0 -5 -12 3 -26 18 -15 14 -31 26 -36 26 -5 0
-6 5 -3 10 3 6 -1 10 -9 10 -12 0 -15 9 -13 38 1 27 -2 36 -12 34 -12 -3 -12
0 -1 12 10 13 10 19 -1 33 -8 10 -9 14 -2 10 13 -8 12 30 -2 52 -5 9 -4 12 3
7 6 -3 13 -2 17 4 3 5 2 10 -2 10 -5 0 -9 9 -10 20 -1 11 2 18 7 15 6 -3 7 1
3 10 -3 10 -6 40 -7 69 -1 28 -5 57 -10 65 -6 9 -5 12 2 7 6 -3 13 -2 17 4 3
5 3 10 -2 10 -9 0 -9 88 0 97 4 3 2 14 -4 24 -5 11 -6 19 -2 19 9 0 8 244 -2
260 -3 5 -3 10 2 10 9 0 8 103 -1 119 -4 6 -4 11 1 11 10 0 9 82 -1 98 -4 7
-4 12 1 12 4 0 8 11 8 25 0 14 -4 25 -9 25 -5 0 -3 6 3 14 10 11 8 17 -6 25
-13 8 -14 10 -3 11 11 0 11 3 2 12 -8 8 -9 15 -1 25 9 10 8 17 -2 30 -10 11
-10 14 -1 9 8 -5 12 0 12 16 0 13 -6 30 -12 37 -8 8 -8 11 -2 8 7 -4 12 3 12
18 0 14 -4 22 -9 19 -5 -3 -9 -1 -9 5 0 5 5 11 12 13 6 2 12 16 12 30 1 15 -1
25 -4 23 -4 -2 -6 17 -4 43 1 26 -3 53 -9 60 -7 9 -5 11 9 6 15 -6 17 -4 7 6
-9 9 -9 19 -2 33 7 11 7 17 1 13 -5 -3 -9 5 -9 19 0 14 4 22 9 19 6 -4 2 5 -7
20 -10 14 -13 26 -7 26 5 0 10 11 10 25 0 13 -4 22 -9 19 -5 -3 -6 2 -3 10 3
9 9 16 13 16 4 0 6 18 5 41 -1 23 5 55 14 71 14 28 66 67 102 76 49 12 178 20
200 12z m1070 -2480 c5 -8 10 -32 10 -53 0 -23 4 -36 10 -32 6 4 10 -8 10 -29
0 -19 5 -36 12 -38 23 -8 -7 -33 -39 -34 -18 0 -33 2 -33 5 0 4 -11 6 -25 6
-14 0 -25 -2 -25 -5 0 -8 -114 -5 -128 4 -7 4 -12 3 -12 -2 0 -5 -10 -8 -22
-6 -13 1 -23 3 -23 4 0 1 -12 3 -27 4 -16 1 -28 -1 -28 -4 0 -3 -29 -5 -65 -5
-36 0 -65 4 -65 8 0 5 -6 5 -12 1 -18 -11 -48 -12 -48 -2 0 5 -4 6 -10 3 -16
-10 -90 -11 -90 -2 0 4 -6 5 -12 1 -15 -10 -48 -13 -48 -5 0 3 -11 6 -25 6
-14 0 -25 -2 -25 -5 0 -8 -114 -5 -128 4 -7 4 -12 3 -12 -2 0 -5 -10 -8 -22
-6 -13 1 -23 3 -23 4 0 1 -12 3 -27 4 -16 1 -28 -1 -28 -4 0 -3 -29 -5 -65 -5
-36 0 -65 4 -65 8 0 5 -6 5 -12 1 -15 -10 -48 -13 -48 -5 0 3 -11 6 -25 6 -14
0 -25 -2 -25 -5 0 -8 -114 -5 -128 4 -7 4 -12 3 -12 -2 0 -9 -36 -9 -46 0 -3
3 -19 2 -35 -2 -18 -5 -27 -5 -24 1 4 5 -4 5 -19 -1 -15 -5 -28 -6 -31 0 -3 5
-12 7 -20 3 -11 -4 -14 1 -12 16 2 11 6 24 10 27 4 4 7 20 7 35 0 15 5 31 10
34 6 3 10 19 10 35 0 16 6 33 14 37 8 4 341 8 741 8 630 0 727 -2 735 -15z
m123 -442 c8 -17 13 -37 10 -44 -2 -6 0 -15 6 -19 6 -3 11 -19 11 -35 0 -15 5
-30 11 -32 8 -3 7 -9 -3 -19 -13 -12 -133 -14 -901 -14 -622 0 -889 3 -897 11
-13 13 -2 47 12 38 6 -4 6 1 -1 13 -7 15 -6 25 4 40 8 11 13 30 10 41 -2 12 3
23 11 26 9 3 12 10 9 16 -4 7 277 10 848 10 l855 0 15 -32z m-1575 -471 c12
-3 22 -2 22 2 0 9 31 8 48 -3 7 -4 12 -2 12 4 0 11 40 7 61 -6 8 -5 9 -3 4 6
-6 10 -4 12 8 7 9 -3 19 -2 22 3 4 6 17 2 33 -8 19 -12 24 -13 17 -3 -6 11 -4
13 7 8 9 -3 21 0 27 6 8 8 14 8 22 0 6 -6 18 -9 27 -6 11 5 13 3 7 -7 -6 -9
-4 -11 6 -5 22 14 60 15 52 2 -5 -9 -2 -8 9 0 8 7 18 10 21 6 4 -3 13 0 21 6
8 7 17 8 20 3 7 -12 76 -10 95 2 9 6 12 5 8 -1 -4 -6 16 -10 53 -10 33 0 60 5
60 10 0 6 5 5 13 -1 6 -5 33 -10 58 -10 25 -1 61 -4 78 -7 24 -4 31 -2 25 6
-5 8 -3 9 6 4 8 -5 119 -9 248 -10 186 -1 237 2 248 13 8 7 14 10 14 5 0 -12
42 -14 56 -2 8 7 14 7 18 0 4 -6 14 -7 23 -4 12 5 14 3 8 -8 -8 -12 -6 -12 8
0 9 7 17 10 17 6 0 -4 8 -1 17 6 9 8 14 9 10 3 -5 -8 11 -11 53 -10 33 1 60
-1 60 -5 0 -4 11 -6 25 -6 13 -1 22 3 19 8 -3 5 3 8 13 6 10 -1 19 -6 20 -11
1 -5 6 -12 12 -15 5 -4 12 -20 15 -36 15 -79 18 -90 25 -100 4 -5 8 -21 9 -34
0 -13 5 -27 9 -30 20 -15 10 -29 -22 -33 -19 -2 -35 0 -35 5 0 4 -6 5 -12 0
-10 -6 -95 -7 -143 -1 -5 1 -20 -2 -32 -6 -15 -5 -23 -3 -23 4 0 6 -5 8 -10 5
-14 -9 -155 -9 -169 -1 -6 4 -11 3 -11 -1 0 -9 -63 -8 -79 1 -5 4 -12 3 -14
-1 -4 -7 -87 -7 -142 -1 -5 1 -20 -2 -32 -6 -15 -5 -23 -3 -23 4 0 6 -5 8 -10
5 -14 -9 -155 -9 -169 -1 -6 4 -11 3 -11 -1 0 -9 -63 -8 -79 1 -5 4 -12 3 -14
-1 -4 -7 -87 -7 -142 -1 -5 1 -20 -2 -32 -6 -15 -5 -23 -3 -23 4 0 6 -5 8 -10
5 -14 -9 -155 -9 -169 -1 -6 4 -11 3 -11 -1 0 -9 -63 -8 -79 1 -5 4 -12 3 -14
-1 -4 -7 -87 -7 -142 -1 -5 1 -20 -2 -32 -6 -15 -5 -23 -3 -23 4 0 6 -5 8 -10
5 -14 -9 -155 -9 -169 -1 -6 4 -11 3 -11 -1 0 -9 -63 -8 -79 1 -5 4 -12 3 -14
-1 -5 -8 -115 -8 -123 0 -12 11 -11 46 1 51 8 3 11 13 8 24 -2 11 0 23 6 26 6
4 11 18 11 32 0 13 4 24 9 24 4 0 8 12 7 28 0 28 26 77 37 66 3 -3 51 -7 106
-9 80 -2 101 1 106 13 3 10 9 11 18 5 6 -6 22 -13 35 -16z"/>
<path d="M995 4530 c-3 -5 -1 -10 4 -10 6 0 11 5 11 10 0 6 -2 10 -4 10 -3 0
-8 -4 -11 -10z"/>
<path d="M937 4492 c-11 -14 -49 -32 -76 -38 -8 -1 -18 -9 -22 -16 -5 -7 -9
-10 -9 -6 0 4 -20 -1 -45 -12 -25 -11 -45 -17 -45 -13 0 3 -9 -2 -20 -12 -11
-10 -20 -15 -20 -12 0 10 -32 -23 -58 -61 -13 -17 -20 -32 -15 -32 4 0 1 -6
-7 -13 -16 -13 -19 -22 -27 -79 -3 -21 -9 -38 -13 -38 -4 0 -10 -15 -13 -32
-8 -52 -16 -79 -27 -92 -5 -7 -7 -16 -3 -19 3 -4 1 -7 -6 -7 -7 0 -10 -4 -7
-9 3 -5 -1 -12 -9 -15 -8 -3 -15 -9 -14 -13 3 -21 -2 -44 -9 -39 -14 8 -7 -60
7 -78 11 -13 11 -16 0 -16 -7 0 4 -16 24 -35 20 -19 37 -39 37 -45 0 -5 7 -10
15 -10 8 0 15 -5 15 -12 0 -7 21 -31 46 -55 26 -25 42 -48 38 -55 -4 -7 -3 -8
4 -4 8 5 12 0 12 -13 0 -12 4 -21 8 -21 12 0 32 -46 32 -71 0 -11 4 -18 8 -15
4 2 8 -11 8 -30 0 -19 -4 -34 -8 -34 -4 0 -8 -7 -8 -15 0 -8 -4 -15 -10 -15
-5 0 -12 0 -15 0 -11 0 -45 -41 -40 -49 2 -5 -2 -11 -10 -15 -8 -3 -15 -17
-15 -31 0 -14 -5 -25 -11 -25 -6 0 -9 -6 -6 -12 2 -7 -1 -24 -8 -38 -6 -14
-10 -38 -9 -55 2 -16 -1 -32 -6 -35 -5 -3 -10 -27 -11 -53 -2 -26 -7 -47 -12
-47 -5 0 -7 -8 -4 -19 7 -27 -23 -48 -69 -46 -21 0 -44 -3 -50 -7 -6 -4 -25
-8 -42 -10 -18 -1 -32 -6 -32 -10 0 -4 -7 -8 -16 -8 -21 0 -89 -47 -89 -63 0
-12 1 -15 35 -56 11 -13 22 -31 25 -41 3 -10 13 -21 21 -24 8 -3 13 -10 9 -16
-3 -5 0 -20 7 -32 7 -13 11 -27 9 -33 -1 -5 -3 -22 -3 -37 -1 -15 -5 -25 -11
-21 -5 3 -6 -3 -3 -15 5 -14 1 -24 -11 -31 -10 -6 -14 -11 -9 -11 5 0 -4 -10
-19 -22 -22 -17 -41 -22 -79 -21 -40 1 -59 -5 -88 -24 -21 -14 -38 -30 -38
-34 0 -5 -8 -9 -17 -9 -14 0 -15 -2 -4 -9 11 -7 10 -11 -5 -20 -11 -6 -16 -11
-11 -11 4 0 -4 -18 -17 -39 -14 -21 -22 -42 -19 -45 4 -3 1 -6 -5 -6 -8 0 -12
-19 -12 -53 0 -45 4 -57 28 -80 15 -15 33 -27 38 -27 6 0 18 -8 27 -18 15 -17
52 -18 586 -17 313 0 573 3 577 7 4 4 2 13 -4 21 -6 7 -12 47 -13 90 -1 42 -5
77 -9 77 -4 0 -7 23 -6 52 1 28 -3 61 -9 72 -6 12 -10 50 -10 86 1 36 -3 68
-9 72 -5 3 -9 40 -9 82 1 45 -3 76 -9 76 -6 0 -8 14 -6 30 3 17 1 30 -4 30 -5
0 -5 8 0 18 11 20 8 52 -6 61 -4 3 -8 36 -8 73 1 39 -3 70 -10 72 -6 2 -9 33
-8 77 1 42 -3 77 -9 81 -5 3 -10 40 -9 82 1 41 -3 78 -8 81 -6 4 -10 35 -10
71 0 35 -4 64 -8 64 -4 0 -8 26 -7 58 0 31 -4 71 -9 87 -4 17 -9 58 -10 91 -1
34 -6 68 -12 75 -11 15 -12 74 -1 85 4 4 0 18 -9 32 -11 17 -12 22 -3 16 11
-6 12 -5 3 7 -14 18 -24 68 -14 74 7 5 3 48 -8 75 -3 8 -6 46 -7 83 -1 38 -6
72 -11 75 -5 4 -9 36 -8 72 1 36 -3 68 -8 71 -5 3 -9 27 -10 52 -1 46 -1 47
-30 45 -16 -1 -34 -9 -41 -16z"/>
</g>
</svg>
